name ./resultDataOpenSim/trcMotMarkerGrf/sub10/grf-15-01.mot
datacolumns 19
datarows 15
range 1.35600000 1.41200000
endheader

                time	     ground_force_vx	     ground_force_vy	     ground_force_vz	     ground_force_px	     ground_force_py	     ground_force_pz	   l_ground_force_vx	   l_ground_force_vy	   l_ground_force_vz	   l_ground_force_px	   l_ground_force_py	   l_ground_force_pz	     ground_torque_x	     ground_torque_y	     ground_torque_z	   l_ground_torque_x	   l_ground_torque_y	   l_ground_torque_z	
          1.35600000	        -30.25929728	        433.61640665	        -30.20640514	          0.86334728	          0.00000000	         -0.01867872	          0.00000000	          0.00000000	          0.00000000	          0.00000000	          0.00000000	          0.00000000	          0.00000000	         -0.07726685	          0.00000000	          0.00000000	          0.00000000	          0.00000000	
          1.36000000	        -25.91355053	        427.34894742	        -30.07062693	          0.86320195	          0.00000000	         -0.01878171	          0.00000000	          0.00000000	          0.00000000	          0.00000000	          0.00000000	          0.00000000	          0.00000000	          0.09501748	          0.00000000	          0.00000000	          0.00000000	          0.00000000	
          1.36400000	        -23.78549339	        421.78120059	        -29.55782170	          0.86331123	          0.00000000	         -0.01888709	          0.00000000	          0.00000000	          0.00000000	          0.00000000	          0.00000000	          0.00000000	          0.00000000	          0.22345653	          0.00000000	          0.00000000	          0.00000000	          0.00000000	
          1.36800000	        -23.63747180	        416.89606493	        -28.60365015	          0.86367739	          0.00000000	         -0.01900586	          0.00000000	          0.00000000	          0.00000000	          0.00000000	          0.00000000	          0.00000000	          0.00000000	          0.29902530	          0.00000000	          0.00000000	          0.00000000	          0.00000000	
          1.37200000	        -24.68568262	        412.61289356	        -27.25256210	          0.86417256	          0.00000000	         -0.01914117	          0.00000000	          0.00000000	          0.00000000	          0.00000000	          0.00000000	          0.00000000	          0.00000000	          0.32002560	          0.00000000	          0.00000000	          0.00000000	          0.00000000	
          1.37600000	        -25.84694220	        408.84079406	        -25.61272706	          0.86463327	          0.00000000	         -0.01927877	          0.00000000	          0.00000000	          0.00000000	          0.00000000	          0.00000000	          0.00000000	          0.00000000	          0.29815595	          0.00000000	          0.00000000	          0.00000000	          0.00000000	
          1.38000000	        -26.05928342	        405.52625887	        -23.82357666	          0.86490432	          0.00000000	         -0.01939266	          0.00000000	          0.00000000	          0.00000000	          0.00000000	          0.00000000	          0.00000000	          0.00000000	          0.25942754	          0.00000000	          0.00000000	          0.00000000	          0.00000000	
          1.38400000	        -24.56710500	        402.64548562	        -22.05764392	          0.86486531	          0.00000000	         -0.01945315	          0.00000000	          0.00000000	          0.00000000	          0.00000000	          0.00000000	          0.00000000	          0.00000000	          0.23669915	          0.00000000	          0.00000000	          0.00000000	          0.00000000	
          1.38800000	        -21.08936489	        400.17214355	        -20.53205272	          0.86448557	          0.00000000	         -0.01943950	          0.00000000	          0.00000000	          0.00000000	          0.00000000	          0.00000000	          0.00000000	          0.00000000	          0.25694052	          0.00000000	          0.00000000	          0.00000000	          0.00000000	
          1.39200000	        -15.85089142	        398.08105507	        -19.50008592	          0.86378399	          0.00000000	         -0.01935026	          0.00000000	          0.00000000	          0.00000000	          0.00000000	          0.00000000	          0.00000000	          0.00000000	          0.33079844	          0.00000000	          0.00000000	          0.00000000	          0.00000000	
          1.39600000	         -9.49675478	        396.38569247	        -19.20151086	          0.86282723	          0.00000000	         -0.01919344	          0.00000000	          0.00000000	          0.00000000	          0.00000000	          0.00000000	          0.00000000	          0.00000000	          0.45093488	          0.00000000	          0.00000000	          0.00000000	          0.00000000	
          1.40000000	         -2.91944880	        395.16119503	        -19.77697179	          0.86179138	          0.00000000	         -0.01898744	          0.00000000	          0.00000000	          0.00000000	          0.00000000	          0.00000000	          0.00000000	          0.00000000	          0.59954680	          0.00000000	          0.00000000	          0.00000000	          0.00000000	
          1.40400000	          2.97122005	        394.52620927	        -21.19862265	          0.86086560	          0.00000000	         -0.01875711	          0.00000000	          0.00000000	          0.00000000	          0.00000000	          0.00000000	          0.00000000	          0.00000000	          0.75915712	          0.00000000	          0.00000000	          0.00000000	          0.00000000	
          1.40800000	          7.48013862	        394.58423909	        -23.26098571	          0.86018606	          0.00000000	         -0.01853413	          0.00000000	          0.00000000	          0.00000000	          0.00000000	          0.00000000	          0.00000000	          0.00000000	          0.91923667	          0.00000000	          0.00000000	          0.00000000	          0.00000000	
          1.41200000	         10.29858453	        395.37807935	        -25.63175549	          0.85982161	          0.00000000	         -0.01834629	          0.00000000	          0.00000000	          0.00000000	          0.00000000	          0.00000000	          0.00000000	          0.00000000	          1.07550413	          0.00000000	          0.00000000	          0.00000000	          0.00000000	
